<svg xmlns="http://www.w3.org/2000/svg" width="508" height="387" viewBox="0 0 508 387">
  <g id="Gruppe_218" data-name="Gruppe 218" transform="translate(3770 590)">
    <g id="Rechteck_232" data-name="Rechteck 232" transform="translate(-3761 -585)" fill="#fff" stroke="#707070" stroke-width="1">
      <rect width="490" height="375" rx="22" stroke="none"/>
      <rect x="0.5" y="0.5" width="489" height="374" rx="21.5" fill="none"/>
    </g>
    <path id="Icon_awesome-database" data-name="Icon awesome-database" d="M184.375,34.071V55.365c0,18.766-41.292,34.071-92.187,34.071S0,74.13,0,55.365V34.071C0,15.305,41.292,0,92.188,0S184.375,15.305,184.375,34.071Zm0,47.912v47.912c0,18.766-41.292,34.071-92.187,34.071S0,148.659,0,129.894V81.982c19.806,15.438,56.057,22.625,92.188,22.625S164.569,97.42,184.375,81.982Zm0,74.529v47.912c0,18.766-41.292,34.071-92.187,34.071S0,223.189,0,204.423V156.511c19.806,15.438,56.057,22.625,92.188,22.625S164.569,171.95,184.375,156.511Z" transform="translate(-3608.188 -501.404)" fill="#413064"/>
    <path id="Ausschluss_22" data-name="Ausschluss 22" d="M478,387H30A29.975,29.975,0,0,1,0,357V30A29.975,29.975,0,0,1,30,0H478a29.975,29.975,0,0,1,30,30V357a29.975,29.975,0,0,1-30,30ZM42.554,38.658a25.028,25.028,0,0,0-25,25V344.406a25.029,25.029,0,0,0,25,25H465.446a25.029,25.029,0,0,0,25-25V63.657a25.028,25.028,0,0,0-25-25Z" transform="translate(-3770 -590)" fill="#b8b8b8"/>
    <path id="Differenzmenge_3" data-name="Differenzmenge 3" d="M12.448,144.591a3.8,3.8,0,0,1-2.578-1.068l-8.675-8.3a3.654,3.654,0,0,1,0-5.406L61.421,72.3,1.2,14.773a3.655,3.655,0,0,1,0-5.407l8.675-8.3A3.774,3.774,0,0,1,12.448,0a3.9,3.9,0,0,1,2.578,1.068L86.819,69.592a3.656,3.656,0,0,1,0,5.406L15.026,143.523A3.674,3.674,0,0,1,12.448,144.591Z" transform="translate(-3387.512 -454.453)" fill="#b8b8b8"/>
    <path id="Differenzmenge_4" data-name="Differenzmenge 4" d="M12.448,0A3.8,3.8,0,0,0,9.87,1.068L1.2,9.367a3.654,3.654,0,0,0,0,5.406L61.421,72.3,1.2,129.818a3.655,3.655,0,0,0,0,5.407l8.675,8.3a3.774,3.774,0,0,0,2.578,1.068,3.9,3.9,0,0,0,2.578-1.068L86.819,75a3.656,3.656,0,0,0,0-5.406L15.026,1.068A3.674,3.674,0,0,0,12.448,0Z" transform="translate(-3644.488 -309.862) rotate(180)" fill="#b8b8b8"/>
    <circle id="Ellipse_22" data-name="Ellipse 22" cx="8.5" cy="8.5" r="8.5" transform="translate(-3304 -578)" fill="#f44"/>
    <circle id="Ellipse_23" data-name="Ellipse 23" cx="8.5" cy="8.5" r="8.5" transform="translate(-3330 -578)" fill="#ffd034"/>
    <circle id="Ellipse_24" data-name="Ellipse 24" cx="8.5" cy="8.5" r="8.5" transform="translate(-3356 -578)" fill="#5ddb7b"/>
  </g>
</svg>
